<svg xmlns="http://www.w3.org/2000/svg" version="1.1" xmlns:xlink="http://www.w3.org/1999/xlink" xmlns:svgjs="http://svgjs.dev/svgjs" width="1500" height="1500" viewBox="0 0 1500 1500"><rect width="1500" height="1500" fill="#ffffff"></rect><g transform="matrix(0.6666666666666666,0,0,0.6666666666666666,250,187.6666666666668)"><svg viewBox="0 0 320 360" data-background-color="#89939e" preserveAspectRatio="xMidYMid meet" height="1687" width="1500" xmlns="http://www.w3.org/2000/svg" xmlns:xlink="http://www.w3.org/1999/xlink"><g id="tight-bounds" transform="matrix(1,0,0,1,0,0)"><svg viewBox="0 0 320 360" height="360" width="320"><g><svg></svg></g><g><svg viewBox="0 0 320 360" height="360" width="320"><g><path d="M39.474 120.804l2.852-5.236c22.696-41.686 66.871-69.977 117.674-69.972 50.817 0 95.006 28.305 117.697 70.005l2.852 5.241 8.173-31.337 31.03 7.961-2.654-4.792c-30.586-55.251-89.468-92.674-157.098-92.674-67.631 0-126.508 37.423-157.103 92.674l-2.654 4.787 31.063-7.956zM160 4.721c63.839 0 119.567 34.288 150.073 85.389l-24.731-6.341-6.417 24.608c-24.217-40.411-68.381-67.503-118.925-67.503-50.525 0-94.68 27.078-118.897 67.465l-6.412-24.575-24.764 6.341c30.506-51.101 86.238-85.384 150.073-85.384zM280.526 239.191l-2.852 5.236c-22.696 41.691-66.871 69.977-117.674 69.977-50.817 0-95.006-28.301-117.697-70.005l-2.852-5.236-8.173 31.332-31.035-7.961 2.654 4.792c30.591 55.246 89.468 92.674 157.103 92.674 67.631 0 126.513-37.427 157.103-92.674l2.654-4.787-31.063 7.956zM160 355.279c-63.839 0-119.567-34.288-150.073-85.389l24.727 6.346 6.421-24.609c24.217 40.402 68.381 67.499 118.925 67.499 50.529 0 94.68-27.078 118.901-67.47l6.408 24.575 24.764-6.341c-30.506 51.096-86.233 85.388-150.073 85.388z" fill="#000000" fill-rule="nonzero" stroke="none" stroke-width="1" stroke-linecap="butt" stroke-linejoin="miter" stroke-miterlimit="10" stroke-dasharray="" stroke-dashoffset="0" font-family="none" font-weight="none" font-size="none" text-anchor="none" style="mix-blend-mode: normal" data-fill-palette-color="tertiary"></path></g><g transform="matrix(1,0,0,1,124.2161625748503,109.69973999999999)"><svg viewBox="0 0 71.5676748502994 140.60052000000002" height="140.60052000000002" width="71.5676748502994"><g><svg viewBox="0 0 71.5676748502994 140.60052000000002" height="140.60052000000002" width="71.5676748502994"><g><svg viewBox="0 0 71.5676748502994 140.60052000000002" height="140.60052000000002" width="71.5676748502994"><g><path d="M0 140.601v-140.601h71.568v140.601z" fill="#000000" stroke="transparent" stroke-width="0" rx="0%" data-fill-palette-color="tertiary"></path><path d="M9.85 130.751v-120.901h51.868v120.901z" fill="#000000" stroke="transparent" stroke-width="0" data-fill-palette-color="tertiary"></path></g><g transform="matrix(1,0,0,1,19.699739999999995,19.69974)" id="textblocktransform"><svg viewBox="0 0 32.16819485029941 101.20104000000002" height="101.20104000000002" width="32.16819485029941" id="textblock"><g><svg viewBox="0 0 32.16819485029941 101.20104000000002" height="101.20104000000002" width="32.16819485029941"><g transform="matrix(1,0,0,1,0,0)"><svg width="32.16819485029941" viewBox="-1.76 -35.16 15.549999999999999 48.92999999999999" height="101.20104000000002" data-palette-color="url(#3f2604c3-bf0d-4f1b-95d5-287839d92ff2)"></svg></g></svg></g></svg></g></svg></g><g></g></svg></g></svg></g></svg></g><defs></defs><mask id="e70a01fb-314d-4a11-bde6-8d9178acebdd"><g id="SvgjsG6293"><svg viewBox="0 0 320 360" height="360" width="320"><g><svg></svg></g><g><svg viewBox="0 0 320 360" height="360" width="320"><g><path d="M39.474 120.804l2.852-5.236c22.696-41.686 66.871-69.977 117.674-69.972 50.817 0 95.006 28.305 117.697 70.005l2.852 5.241 8.173-31.337 31.03 7.961-2.654-4.792c-30.586-55.251-89.468-92.674-157.098-92.674-67.631 0-126.508 37.423-157.103 92.674l-2.654 4.787 31.063-7.956zM160 4.721c63.839 0 119.567 34.288 150.073 85.389l-24.731-6.341-6.417 24.608c-24.217-40.411-68.381-67.503-118.925-67.503-50.525 0-94.68 27.078-118.897 67.465l-6.412-24.575-24.764 6.341c30.506-51.101 86.238-85.384 150.073-85.384zM280.526 239.191l-2.852 5.236c-22.696 41.691-66.871 69.977-117.674 69.977-50.817 0-95.006-28.301-117.697-70.005l-2.852-5.236-8.173 31.332-31.035-7.961 2.654 4.792c30.591 55.246 89.468 92.674 157.103 92.674 67.631 0 126.513-37.427 157.103-92.674l2.654-4.787-31.063 7.956zM160 355.279c-63.839 0-119.567-34.288-150.073-85.389l24.727 6.346 6.421-24.609c24.217 40.402 68.381 67.499 118.925 67.499 50.529 0 94.68-27.078 118.901-67.47l6.408 24.575 24.764-6.341c-30.506 51.096-86.233 85.388-150.073 85.388z" fill="black" fill-rule="nonzero" stroke="none" stroke-width="1" stroke-linecap="butt" stroke-linejoin="miter" stroke-miterlimit="10" stroke-dasharray="" stroke-dashoffset="0" font-family="none" font-weight="none" font-size="none" text-anchor="none" style="mix-blend-mode: normal"></path></g><g transform="matrix(1,0,0,1,124.2161625748503,109.69973999999999)"><svg viewBox="0 0 71.5676748502994 140.60052000000002" height="140.60052000000002" width="71.5676748502994"><g><svg viewBox="0 0 71.5676748502994 140.60052000000002" height="140.60052000000002" width="71.5676748502994"><g><svg viewBox="0 0 71.5676748502994 140.60052000000002" height="140.60052000000002" width="71.5676748502994"><g><path d="M0 140.601v-140.601h71.568v140.601z" fill="black" stroke="transparent" stroke-width="0" rx="0%"></path><path d="M3.283 137.317v-134.034h65.001v134.034z" fill="white" stroke="transparent" stroke-width="0" rx="0%"></path><path d="M9.85 130.751v-120.901h51.868v120.901z" fill="black" stroke="transparent" stroke-width="0"></path></g><g transform="matrix(1,0,0,1,19.699739999999995,19.69974)" id="SvgjsG6292"><svg viewBox="0 0 32.16819485029941 101.20104000000002" height="101.20104000000002" width="32.16819485029941" id="SvgjsSvg6291"><g><svg viewBox="0 0 32.16819485029941 101.20104000000002" height="101.20104000000002" width="32.16819485029941"><g transform="matrix(1,0,0,1,0,0)"><svg width="32.16819485029941" viewBox="-1.76 -35.16 15.549999999999999 48.92999999999999" height="101.20104000000002" data-palette-color="url(#3f2604c3-bf0d-4f1b-95d5-287839d92ff2)"><path d="M13.79-35.16L13.79-11.04Q13.79-7.64 12.93-4.14 12.06-0.63 10.51 2.65 8.96 5.93 6.79 8.79 4.61 11.65 2 13.77L2 13.77-1.76 11.5Q-0.29 9.5 0.81 6.96 1.9 4.42 2.64 1.68 3.37-1.05 3.74-3.81 4.1-6.57 4.1-9.06L4.1-9.06 4.1-35.16 13.79-35.16Z" opacity="1" transform="matrix(1,0,0,1,0,0)" fill="white" class="wordmark-text-0" id="SvgjsPath6290"></path></svg></g></svg></g></svg></g></svg></g><g></g></svg></g></svg></g></svg></g><defs><mask></mask></defs></svg><rect width="320" height="360" fill="black" stroke="none" visibility="hidden"></rect></g></mask><linearGradient x1="0.054" x2="0.941" y1="0.5" y2="0.5" id="3f2604c3-bf0d-4f1b-95d5-287839d92ff2"><stop stop-color="#8c8c8c" offset="0"></stop><stop stop-color="#e3e4e5" offset="0.498"></stop><stop stop-color="#8c8c8c" offset="1"></stop></linearGradient><rect width="320" height="360" fill="#ffffff" mask="url(#e70a01fb-314d-4a11-bde6-8d9178acebdd)" data-fill-palette-color="quaternary"></rect></svg><rect width="320" height="360" fill="none" stroke="none" visibility="hidden"></rect></g></svg></g></svg>